<?xml version="1.0" encoding="utf-8"?>
<!-- Generator: Adobe Illustrator 17.1.0, SVG Export Plug-In . SVG Version: 6.00 Build 0)  -->
<!DOCTYPE svg PUBLIC "-//W3C//DTD SVG 1.1//EN" "http://www.w3.org/Graphics/SVG/1.1/DTD/svg11.dtd">
<svg version="1.1" id="Calque_1" xmlns="http://www.w3.org/2000/svg" xmlns:xlink="http://www.w3.org/1999/xlink" x="0px" y="0px"
	 viewBox="0 0 549 355.5" enable-background="new 0 0 549 355.5" xml:space="preserve">
<path fill="#55ACEE" d="M549,258.7c0,5.1-3.4,8.6-8.6,8.6H8.6c-5.1,0-8.6-3.4-8.6-8.6V96.8c0-5.1,3.4-8.6,8.6-8.6h531.9
	c5.1,0,8.6,3.4,8.6,8.6V258.7z"/>
<g>
	<path fill="#FFFFFF" d="M143.9,153.3c-3.4,1.7-6,2.6-10.3,2.6c3.4-2.6,6-5.1,7.7-9.4c-3.4,1.7-6.9,3.4-11.1,4.3
		c-3.4-3.4-7.7-5.1-12-5.1c-9.4,0-17.1,7.7-17.1,17.1c0,1.7,0,2.6,0.9,4.3c-13.7-1.7-26.6-8.6-35.1-18.8c-1.7,2.6-1.7,5.1-1.7,8.6
		c0,6,3.4,11.1,7.7,13.7c-3.4,0-5.1-0.9-7.7-2.6l0,0c0,8.6,6,14.6,12.8,16.3c-1.7,0-3.4,0.9-4.3,0.9s-2.6,0-3.4,0
		c2.6,6.9,8.6,12,15.4,12c-5.1,4.3-12.8,6.9-20.6,6.9c-1.7,0-2.6,0-4.3,0c7.7,4.3,16.3,7.7,25.7,7.7c30.8,0,48-25.7,48-48
		c0-0.9,0-1.7,0-2.6C137.9,160.2,141.3,156.8,143.9,153.3z"/>
</g>
<g enable-background="new    ">
	<path fill="#FFFFFF" d="M233.8,134.1v12.3h-24.3v68.2h-15v-68.2h-24.3v-12.3H233.8z"/>
	<path fill="#FFFFFF" d="M226.8,157.5h11c1,0,1.9,0.2,2.6,0.7c0.7,0.5,1.2,1.1,1.4,1.8l8.2,30.5c0.4,1.7,0.8,3.3,1.1,4.9
		c0.3,1.6,0.6,3.2,0.8,4.7c0.4-1.6,0.8-3.1,1.3-4.7c0.5-1.6,1-3.2,1.5-4.9l9.5-30.6c0.2-0.7,0.7-1.4,1.3-1.8
		c0.6-0.5,1.4-0.7,2.4-0.7h6.1c1,0,1.8,0.2,2.5,0.7c0.7,0.5,1.1,1.1,1.4,1.8l9.2,30.6c0.5,1.7,0.9,3.4,1.4,5s0.8,3.2,1.2,4.8
		c0.3-1.6,0.6-3.2,0.9-4.8s0.7-3.2,1.2-5l8.4-30.5c0.3-0.7,0.7-1.4,1.4-1.8c0.7-0.5,1.5-0.7,2.4-0.7h10.5L296,214.6h-11
		c-1.3,0-2.1-0.8-2.6-2.4l-10.2-33c-0.7-2.3-1.2-4.5-1.6-6.6c-0.4,2.2-1,4.5-1.7,6.7l-10.4,32.9c-0.4,1.6-1.4,2.4-3,2.4h-10.6
		L226.8,157.5z"/>
	<path fill="#FFFFFF" d="M345.3,156.6c3.6,0,6.9,0.6,10,1.7c3,1.2,5.7,2.8,7.8,5c2.2,2.2,3.9,4.9,5.1,8.1c1.2,3.2,1.9,6.9,1.9,11
		c0,2.1-0.2,3.5-0.7,4.2s-1.3,1.1-2.6,1.1h-35.4c0.2,2.9,0.7,5.5,1.6,7.6c0.8,2.1,1.9,3.9,3.2,5.3s2.9,2.4,4.8,3.1
		c1.8,0.7,3.9,1,6.1,1s4.1-0.3,5.8-0.8c1.6-0.5,3-1.1,4.2-1.7c1.2-0.6,2.3-1.2,3.2-1.7c0.9-0.5,1.8-0.8,2.6-0.8c1.2,0,2,0.4,2.6,1.3
		l4,5c-1.5,1.8-3.2,3.3-5.1,4.5s-3.9,2.2-5.9,2.9s-4.2,1.2-6.3,1.5c-2.1,0.3-4.2,0.4-6.2,0.4c-4,0-7.7-0.7-11.1-2
		c-3.4-1.3-6.4-3.3-8.9-5.8c-2.5-2.6-4.5-5.8-6-9.6c-1.4-3.8-2.2-8.2-2.2-13.2c0-3.9,0.6-7.6,1.9-11c1.3-3.4,3.1-6.4,5.4-9
		c2.4-2.5,5.2-4.6,8.6-6C337.2,157.3,341.1,156.6,345.3,156.6z M345.6,166.5c-4,0-7.1,1.1-9.4,3.4c-2.3,2.3-3.7,5.5-4.3,9.6h25.9
		c0-1.8-0.2-3.5-0.8-5c-0.5-1.6-1.3-3-2.3-4.1c-1-1.2-2.3-2.1-3.8-2.8C349.4,166.8,347.7,166.5,345.6,166.5z"/>
	<path fill="#FFFFFF" d="M404.8,156.6c3.6,0,6.9,0.6,10,1.7c3,1.2,5.7,2.8,7.8,5c2.2,2.2,3.9,4.9,5.1,8.1c1.2,3.2,1.9,6.9,1.9,11
		c0,2.1-0.2,3.5-0.7,4.2s-1.3,1.1-2.6,1.1H391c0.2,2.9,0.7,5.5,1.6,7.6c0.8,2.1,1.9,3.9,3.2,5.3s2.9,2.4,4.8,3.1
		c1.8,0.7,3.9,1,6.1,1s4.1-0.3,5.8-0.8c1.6-0.5,3-1.1,4.2-1.7c1.2-0.6,2.3-1.2,3.2-1.7c0.9-0.5,1.8-0.8,2.6-0.8c1.2,0,2,0.4,2.6,1.3
		l4,5c-1.5,1.8-3.2,3.3-5.1,4.5s-3.9,2.2-5.9,2.9s-4.2,1.2-6.3,1.5c-2.1,0.3-4.2,0.4-6.2,0.4c-4,0-7.7-0.7-11.1-2
		c-3.4-1.3-6.4-3.3-8.9-5.8c-2.5-2.6-4.5-5.8-6-9.6c-1.4-3.8-2.2-8.2-2.2-13.2c0-3.9,0.6-7.6,1.9-11c1.3-3.4,3.1-6.4,5.4-9
		c2.4-2.5,5.2-4.6,8.6-6C396.7,157.3,400.5,156.6,404.8,156.6z M405.1,166.5c-4,0-7.1,1.1-9.4,3.4c-2.3,2.3-3.7,5.5-4.3,9.6h25.9
		c0-1.8-0.2-3.5-0.8-5c-0.5-1.6-1.3-3-2.3-4.1c-1-1.2-2.3-2.1-3.8-2.8C408.9,166.8,407.1,166.5,405.1,166.5z"/>
	<path fill="#FFFFFF" d="M458.3,215.5c-5,0-8.8-1.4-11.4-4.2c-2.7-2.8-4-6.7-4-11.6v-31.9H437c-0.7,0-1.4-0.2-1.9-0.7
		c-0.5-0.5-0.8-1.2-0.8-2.2v-5.5l9.2-1.5l2.9-15.6c0.2-0.7,0.5-1.3,1.1-1.7c0.5-0.4,1.2-0.6,2-0.6h7.1v18h15.3v9.8h-15.3v31
		c0,1.8,0.4,3.2,1.3,4.2c0.9,1,2.1,1.5,3.6,1.5c0.9,0,1.6-0.1,2.1-0.3c0.6-0.2,1.1-0.4,1.5-0.6c0.4-0.2,0.8-0.4,1.1-0.6
		c0.3-0.2,0.7-0.3,1-0.3c0.4,0,0.7,0.1,1,0.3c0.3,0.2,0.5,0.5,0.8,0.9l4.1,6.7c-2,1.7-4.3,2.9-6.9,3.8S461.1,215.5,458.3,215.5z"/>
</g>
</svg>
